<svg xmlns="http://www.w3.org/2000/svg" xmlns:xlink="http://www.w3.org/1999/xlink" width="220" height="50" viewBox="0 0 220 50"><defs><path id="a" d="M0 43.306h215.453V0H0z"/></defs><g fill="none" fill-rule="evenodd"><g transform="translate(2 3)"><path fill="#FFF" d="M59.391 17.47c0-1.34-1.02-1.975-2.93-1.975h-4.293v3.929h4.293c1.91 0 2.93-.59 2.93-1.953zm-7.223-8.403v3.748h3.657c1.795 0 2.771-.636 2.771-1.886s-.976-1.862-2.77-1.862h-3.658zm10.925 8.79c0 2.748-2.18 4.339-6.359 4.339h-8.223v-15.9h7.77c3.973 0 6.017 1.657 6.017 4.133 0 1.59-.817 2.817-2.112 3.499 1.772.567 2.907 1.93 2.907 3.929zm6.428-11.562h3.68v12.901h7.972v3H69.521zm26.802 9.699l-2.521-6.087-2.522 6.087h5.043zm1.158 2.794h-7.382l-1.408 3.407h-3.77l7.087-15.9h3.633l7.11 15.9h-3.862l-1.408-3.407zm9.335-4.543c0-4.792 3.68-8.223 8.631-8.223 2.75 0 5.043 1 6.542 2.817l-2.362 2.181c-1.068-1.227-2.408-1.863-3.998-1.863-2.976 0-5.088 2.09-5.088 5.088 0 2.999 2.112 5.088 5.088 5.088 1.59 0 2.93-.636 3.998-1.885l2.362 2.18c-1.499 1.84-3.793 2.84-6.565 2.84-4.928 0-8.608-3.43-8.608-8.223m27.074 1.704l-2.136 2.226v4.02h-3.656v-15.9h3.656v7.428l7.042-7.427h4.088l-6.587 7.086 6.974 8.814h-4.293zm15.536-9.654h1.158V21.15h9.155v1.045h-10.313zm27.892 14.855v1.045h-10.972v-15.9h10.631V7.34h-9.472v6.27h8.472v1.022h-8.472v6.52zm17.262-4.406l-4.18-9.177-4.156 9.177h8.336zm.432.977h-9.223l-2.022 4.474h-1.25l7.315-15.9h1.159l7.314 15.9h-1.25l-2.043-4.474zM205.981 7.34v6.792h8.472v1.044h-8.472v7.019h-1.158v-15.9h10.63V7.34zM54.643 32.7c-.426-.599-1.23-.978-2.023-.978-1.505 0-2.505 1.081-2.505 2.61 0 1.574 1.068 2.585 2.505 2.585.92 0 1.77-.483 2.172-1.184l1.61.425c-.667 1.425-2.093 2.356-3.782 2.356-2.31 0-4.172-1.758-4.172-4.183s1.862-4.183 4.172-4.183c1.586 0 2.942.84 3.655 2.126l-1.632.425zm8.804 2.7l-.793-2.034c-.173-.448-.38-1.115-.39-1.115h-.012c-.012 0-.219.667-.39 1.115l-.794 2.034h2.38zM64 36.814h-3.483l-.597 1.54h-1.724l3.31-8.045h1.505l3.31 8.045h-1.724L64 36.814zm7.826-2.609c.942 0 1.482-.46 1.482-1.207 0-.758-.563-1.195-1.482-1.195h-1.241v2.402h1.241zm.034-3.896c1.931 0 3.104 1.01 3.104 2.689 0 1.689-1.173 2.7-3.104 2.7h-1.275v2.655h-1.598v-8.044h2.873z"/><mask id="b" fill="#fff"><use xlink:href="#a"/></mask><path fill="#FFF" d="M77.929 38.353h1.598v-8.044h-1.598zm11.182-8.044v1.494h-2.528v6.55h-1.598v-6.55H82.48v-1.494zM95.56 35.4l-.794-2.034c-.173-.448-.38-1.115-.39-1.115h-.012c-.012 0-.219.667-.39 1.115L93.18 35.4h2.38zm.551 1.414h-3.483l-.597 1.54h-1.724l3.31-8.045h1.505l3.31 8.045h-1.724l-.597-1.54zm10.563.046v1.494H101.1v-8.045h1.597v6.55z" mask="url(#b)"/></g><path d="M13.277 32.076l24.492 5.021-17.456 9.209zm1.063-1.888l12.844-15.493 12.003 20.722zM20.664 3l5.654 9.814L13.185 28.63zm-3.351 4.819l-6.5 22.284L2 34.347zM2.14 36.352l8.973-4.34 6.712 13.411z" fill="#FFF"/></g></svg>