<svg xmlns="http://www.w3.org/2000/svg" width="133" height="60" viewBox="0 0 133 60">
    <g fill="#FFF" fill-rule="nonzero">
        <path d="M47.124 2.987h12.902v41.465h3.273V2.987H76.2V0H47.124zM83.979 0h3.273v44.452h-3.273zM103.212 21.213L123.234 0h-4.166L99.424 20.832l-.47.497.483.53 20.459 22.593h4.237zM36.301 20.194H3.332V0H.059v44.452h3.273V23.239H36.3v21.213h3.273V0h-3.273zM.398 58.426a.88.88 0 0 0 .886.645.657.657 0 0 0 .517-.157.642.642 0 0 0 .22-.488c0-1.007-1.897-.749-1.897-2.039-.01-.304.115-.597.342-.801.227-.205.533-.301.838-.263.508-.016.969.294 1.14.767l-.39.155a.815.815 0 0 0-.75-.503.617.617 0 0 0-.459.163.603.603 0 0 0-.193.443c0 .917 1.904.723 1.904 2.007.003.32-.131.626-.37.842-.24.216-.56.32-.882.287A1.304 1.304 0 0 1 0 58.6l.398-.174zM14.2 58.103l-.483 1.29h-.476l1.52-4.012h.469l1.519 4.013h-.45l-.482-1.29H14.2zm.795-2.2l-.652 1.8h1.304l-.652-1.8zM27.721 55.394h1.03c.828 0 1.259.412 1.259 1.116.035.46-.238.89-.672 1.058l1.01 1.838h-.52l-.92-1.741h-.652v1.741h-.47l-.065-4.012zm1.03 1.864a.656.656 0 0 0 .585-.172.64.64 0 0 0 .185-.576c0-.42-.228-.704-.802-.704h-.528v1.452h.56zM41.967 55.82H40.87v-.426h2.654v.425h-1.089v3.587h-.47zM56.258 55.316a2.107 2.107 0 0 1 1.97 1.255c.34.775.173 1.676-.422 2.281-.595.606-1.5.796-2.292.482a2.084 2.084 0 0 1-1.323-1.915 2.014 2.014 0 0 1 .585-1.477c.39-.393.925-.612 1.482-.607m0 3.73c.679.034 1.31-.345 1.595-.956a1.632 1.632 0 0 0-.305-1.82 1.675 1.675 0 0 0-1.82-.396 1.645 1.645 0 0 0-1.048 1.526c-.021.428.135.846.433 1.157.298.31.712.487 1.145.489M69.447 55.394h1.03c.828 0 1.265.412 1.265 1.116.032.461-.243.89-.678 1.058l1.004 1.838h-.522l-.913-1.741h-.69v1.741h-.47l-.026-4.012zm1.03 1.864a.656.656 0 0 0 .585-.172.64.64 0 0 0 .184-.576c0-.42-.221-.704-.795-.704h-.535v1.452h.561zM83.053 55.394h1v4.013h-1zM95.44 58.103l-.482 1.29h-.476l1.52-4.012h.488l1.513 4.013h-.476l-.483-1.29h-1.603zm.796-2.2l-.652 1.8h1.304l-.652-1.8zM108.962 55.394h.47v3.593h1.519v.42h-1.989zM121.995 55.394h1.923v.425h-1.454v1.336h1.272v.42h-1.272v1.412h1.52v.42h-1.99zM132.557 41.432a2.858 2.858 0 0 1-1.774 2.65 2.91 2.91 0 0 1-3.152-.611 2.836 2.836 0 0 1-.632-3.117 2.889 2.889 0 0 1 2.67-1.767 2.78 2.78 0 0 1 2.076.794c.549.541.844 1.285.812 2.051zm-.333 0c0-1.396-1.144-2.529-2.556-2.529-1.411 0-2.555 1.133-2.555 2.53 0 1.396 1.144 2.528 2.555 2.528.69.04 1.364-.213 1.852-.697a2.38 2.38 0 0 0 .704-1.832zm-3.005.187v1.368h-.32v-3.103h.841a.879.879 0 0 1 .923.703.87.87 0 0 1-.59.994l.652 1.406h-.333l-.652-1.368h-.521zm0-1.438v1.11h.521a.564.564 0 0 0 .425-.158.552.552 0 0 0 .168-.417.526.526 0 0 0-.163-.418.538.538 0 0 0-.43-.143l-.521.026z"/>
    </g>
</svg>
