<svg xmlns="http://www.w3.org/2000/svg" width="46" height="48" viewBox="0 0 46 48">
    <path fill="#FFF" fill-rule="evenodd" d="M29.986 39.652c-1.35-1.405-1.909-3.37-1.909-5.054 1.062 0 1.976.42 3.032 1.053 0-1.826-1.552-2.737-3.032-2.737 0-2.381 2.329-4.698 5.572-4.698 5.155 0 7.06 2.877 7.06 7.506C43.458 34.105 46 29.894 46 25.965c0-3.927-3.112-7.578-7.058-7.578-5.78 0-8.183 2.174-10.795 5.685-2.045 2.732-2.613 7.156-2.613 8.842h-1.12c0-4.002 1.828-7.997 3.663-11.439.848-1.615 1.835-3.578 1.835-5.331 0-2.106-.987-4.424-2.399-6.953C26.176 6.735 24.268 3.09 23 0c-1.272 3.089-3.176 6.735-4.518 9.191-1.407 2.529-2.398 4.847-2.398 6.953 0 1.753.99 3.716 1.834 5.331 1.832 3.442 3.666 7.437 3.666 11.44H20.46c0-1.687-.563-6.11-2.612-8.843-2.613-3.511-5.013-5.685-10.793-5.685-3.954 0-7.056 3.65-7.056 7.578 0 3.93 2.543 8.14 5.291 9.757 0-4.629 1.905-7.506 7.052-7.506 3.251 0 5.575 2.317 5.575 4.698-1.476 0-3.032.91-3.032 2.737 1.053-.633 1.971-1.053 3.032-1.053 0 1.684-.564 3.649-1.904 5.054-.28-1.405-.848-2.528-1.976-2.528-1.341 0-2.611 1.473-2.611 3.083 0 1.69.991 3.017 2.681 3.017 2.824 0 5.79-3.572 6.07-8.626h1.406c0 1.754-.14 3.16-.56 4.213-.288.768-.563 1.469-.563 2.172 0 .98 1.411 4.492 2.539 7.017 1.127-2.525 2.534-6.037 2.534-7.017 0-.703-.28-1.404-.559-2.172-.425-1.053-.56-2.459-.56-4.213h1.408c.279 5.054 3.241 8.626 6.064 8.626 1.693 0 2.683-1.327 2.683-3.017 0-1.61-1.267-3.083-2.613-3.083-1.123 0-1.698 1.123-1.97 2.528z"/>
</svg>
