<svg xmlns="http://www.w3.org/2000/svg" viewBox="0 0 75 75">
  <path fill="#fff" d="M37.5 75C58.2 75 75 58.2 75 37.5S58.2 0 37.5 0 0 16.8 0 37.5 16.8 75 37.5 75M26.7 54.4c-.2 0-.3-.2-.4-.4L9 19.2c3.1-4.7 7.2-8.7 12.2-11.5l12.4 27.7c.2.5.5.6.9.6h6c.4 0 .7-.1.9-.6L53.8 7.7c5 2.8 9.1 6.8 12.2 11.5L48.8 54c-.1.2-.2.4-.4.4s-.4-.2-.5-.4l-6.5-14.9c-.2-.5-.5-.6-.9-.6h-6c-.4 0-.7.1-.9.6L27.1 54c-.1.2-.2.4-.4.4m10.8-24.6c-.2 0-.3-.2-.4-.4l-10.7-24c3.5-1.3 7.2-1.9 11.1-1.9s7.6.7 11.1 1.9l-10.7 24c-.1.2-.2.4-.4.4m0 41.7c-18.6 0-33.9-15.4-33.9-34 0-4.2.7-8.2 2.1-11.9l19.8 40c.3.5.6.9 1.2.9s1-.4 1.2-.9L37 45.1c.1-.2.2-.4.4-.4s.3.2.4.4L47 65.6c.2.5.6.9 1.2.9s.9-.4 1.2-.9l19.9-40c1.4 3.7 2.1 7.7 2.1 11.9 0 18.6-15.3 34-33.9 34"/>
</svg>
